<svg width="1024" height="1024" viewBox="0 0 1024 1024" fill="none" xmlns="http://www.w3.org/2000/svg">
<path d="M166.195 513.153V463.189C194.864 463.189 214.751 457.472 225.854 446.037C236.957 434.602 242.509 416.125 242.509 390.604V335.668C242.509 305.009 246.735 280.483 255.186 262.088C263.804 243.527 275.736 229.524 290.982 220.078C306.394 210.632 324.623 204.335 345.669 201.186C366.716 198.037 389.751 196.463 414.774 196.463V275.511C395.219 275.511 380.305 278.08 370.03 283.217C359.921 288.189 353.044 295.978 349.398 306.584C345.752 317.024 343.929 330.282 343.929 346.357V418.942C343.929 431.536 341.609 443.551 336.969 454.986C332.329 466.255 323.711 476.281 311.117 485.064C298.522 493.681 280.541 500.559 257.175 505.696C233.808 510.668 203.482 513.153 166.195 513.153ZM414.774 825.618C389.751 825.618 366.716 824.044 345.669 820.895C324.623 817.746 306.394 811.449 290.982 802.003C275.736 792.557 263.804 778.554 255.186 759.993C246.735 741.598 242.509 717.071 242.509 686.413V631.229C242.509 605.708 236.957 587.23 225.854 575.795C214.751 564.361 194.864 558.643 166.195 558.643V508.679C203.482 508.679 233.808 511.248 257.175 516.385C280.541 521.357 298.522 528.234 311.117 537.017C323.711 545.634 332.329 555.661 336.969 567.095C341.609 578.364 343.929 590.379 343.929 603.139V675.724C343.929 691.634 345.752 704.808 349.398 715.249C353.044 725.855 359.921 733.643 370.03 738.615C380.305 743.752 395.219 746.321 414.774 746.321V825.618ZM166.195 558.643V463.189H255.435V558.643H166.195ZM857.743 508.679V558.643C829.239 558.643 809.353 564.361 798.084 575.795C786.981 587.23 781.429 605.708 781.429 631.229V686.413C781.429 717.071 777.12 741.598 768.503 759.993C760.051 778.554 748.12 792.557 732.708 802.003C717.461 811.449 699.315 817.746 678.269 820.895C657.388 824.044 634.353 825.618 609.164 825.618V746.321C628.718 746.321 643.55 743.752 653.659 738.615C663.934 733.643 670.894 725.855 674.54 715.249C678.186 704.808 680.009 691.634 680.009 675.724V603.139C680.009 590.379 682.329 578.364 686.969 567.095C691.609 555.661 700.227 545.634 712.821 537.017C725.416 528.234 743.396 521.357 766.763 516.385C790.129 511.248 820.456 508.679 857.743 508.679ZM609.164 196.463C634.353 196.463 657.388 198.037 678.269 201.186C699.315 204.335 717.461 210.632 732.708 220.078C748.12 229.524 760.051 243.527 768.503 262.088C777.12 280.483 781.429 305.009 781.429 335.668V390.604C781.429 416.125 786.981 434.602 798.084 446.037C809.353 457.472 829.239 463.189 857.743 463.189V513.153C820.456 513.153 790.129 510.668 766.763 505.696C743.396 500.559 725.416 493.681 712.821 485.064C700.227 476.281 691.609 466.255 686.969 454.986C682.329 443.551 680.009 431.536 680.009 418.942V346.357C680.009 330.282 678.186 317.024 674.54 306.584C670.894 295.978 663.934 288.189 653.659 283.217C643.55 278.08 628.718 275.511 609.164 275.511V196.463ZM857.743 463.189V558.643H768.503V463.189H857.743Z" fill="white"/>
</svg>
