<svg width="1024" height="1024" viewBox="0 0 1024 1024" fill="none" xmlns="http://www.w3.org/2000/svg">
<path d="M811.356 632.012C812.486 628.16 813.654 624.327 814.649 620.378C857.148 451.045 753.419 250.847 577.888 145.438C654.816 249.717 688.82 376.019 658.601 486.478C655.907 496.326 652.663 505.787 649.081 514.978C645.19 512.43 640.295 509.524 633.721 505.903C633.721 505.903 459.107 398.09 269.857 207.401C264.894 202.39 370.777 358.737 490.938 485.686C434.333 453.903 276.567 339.11 176.68 247.69C188.951 268.158 203.549 287.863 219.585 306.834C303.001 412.61 411.77 543.131 542.088 643.347C450.524 699.382 321.142 703.736 192.33 643.404C160.47 628.469 130.511 610.453 102.793 589.985C157.322 677.205 241.308 752.454 343.522 796.392C465.411 848.778 586.625 845.225 676.906 797.251L676.838 797.357C677.147 797.164 677.485 796.961 677.804 796.768C681.859 794.596 685.875 792.356 689.795 790.01C733.405 767.621 818.501 745.531 864.225 834.508C875.482 856.405 899.416 740.356 811.434 632.099C811.405 632.06 811.385 632.041 811.356 632.012Z" fill="white"/>
</svg>
